<svg width="79" height="80" viewBox="0 0 79 80" fill="none" xmlns="http://www.w3.org/2000/svg">
<path d="M77.6615 53.2979C78.772 55.5521 77.8408 58.2814 75.5841 59.3915L49.6175 72.1683C47.3637 73.2764 44.6358 72.3475 43.5244 70.0928L19.0507 20.3541C17.9401 18.0989 18.871 15.3701 21.1273 14.2615L47.0939 1.48365C49.3482 0.3741 52.0799 1.30297 53.1889 3.55723L77.6615 53.2979Z" fill="#151515" fill-opacity="0.7"/>
<path d="M77.6616 53.2976L76.8806 53.6821C77.1383 54.2063 77.2588 54.7565 77.2588 55.3013C77.2578 56.6609 76.5029 57.9695 75.1997 58.6102L49.233 71.3871C48.7093 71.6444 48.1587 71.7643 47.6138 71.7648C46.2537 71.7638 44.9461 71.0099 44.3054 69.7081L19.8317 19.9694C19.5734 19.4442 19.4521 18.8931 19.452 18.3486C19.4531 16.9886 20.2072 15.6815 21.511 15.0422L47.4779 2.26484C48.003 2.0066 48.5542 1.88567 49.0996 1.88519C50.4601 1.88615 51.7682 2.64014 52.4075 3.94143L76.8801 53.6816L77.6616 53.2976L78.4425 52.9132L53.9699 3.17251C53.0261 1.25645 51.0999 0.143066 49.0996 0.144028C48.295 0.144028 47.4765 0.324692 46.709 0.702408L20.743 13.4798C18.8254 14.4221 17.7098 16.3478 17.7109 18.3486C17.7107 19.1527 17.8916 19.9713 18.2693 20.7383L42.7434 70.477C43.6882 72.3926 45.6134 73.5069 47.6138 73.506C48.4169 73.506 49.2345 73.3263 50.0015 72.9495L75.9686 60.1722C77.8851 59.2279 79.0014 57.3022 79 55.3013C79.0004 54.4982 78.8203 53.6797 78.4425 52.9132L77.6616 53.2976Z" fill="#CEA561"/>
<path d="M72.6538 51.8514C73.6246 53.8214 72.953 56.1354 71.153 57.0205L50.4431 67.2111C48.6408 68.0971 46.3986 67.2155 45.4307 65.2474L24.0524 21.8032C23.0858 19.8341 23.752 17.5211 25.5549 16.6341L46.2675 6.44346C48.067 5.55843 50.3121 6.43913 51.2776 8.40769L72.6538 51.8514Z" fill="#151515" fill-opacity="0.7"/>
<path d="M72.6539 51.8511L71.8729 52.2361C72.1153 52.728 72.228 53.2406 72.228 53.7335C72.228 54.2798 72.0883 54.7992 71.8373 55.2318C71.5858 55.6649 71.2283 56.0118 70.7687 56.2392L50.0588 66.4299C49.7052 66.6033 49.3337 66.6843 48.955 66.6847C47.9009 66.6881 46.7827 66.0276 46.2123 64.8631L24.8335 21.4184C24.592 20.927 24.4793 20.4134 24.4793 19.921C24.4793 19.3747 24.6184 18.8553 24.8693 18.4227C25.1208 17.9896 25.4777 17.6422 25.9391 17.4153L46.6516 7.22414C47.0048 7.0507 47.3753 6.96976 47.754 6.96928C48.8076 6.9659 49.9268 7.62643 50.4963 8.7909L50.4967 8.79186L71.8729 52.2356L72.6539 51.8511L73.4349 51.4672L52.0587 8.02342L52.0592 8.02439C51.2069 6.28997 49.5187 5.23101 47.754 5.22812C47.1214 5.22764 46.4801 5.36784 45.8832 5.66221L25.1708 15.8524C24.3888 16.2364 23.7726 16.8396 23.3622 17.5502C22.9506 18.2618 22.7383 19.0808 22.7383 19.921C22.7383 20.6789 22.9116 21.4555 23.2709 22.1869L44.6498 65.6316C45.5026 67.3631 47.1893 68.4225 48.955 68.4259C49.5871 68.4264 50.2289 68.2862 50.8268 67.9923L71.5371 57.8012C72.3181 57.4177 72.9334 56.8149 73.3443 56.1043C73.7558 55.3932 73.9687 54.5742 73.9687 53.7335C73.9687 52.9756 73.7953 52.1985 73.4349 51.4667L72.6539 51.8511Z" fill="#CEA561"/>
<path d="M28.0355 19.839C28.3489 20.475 28.0854 21.2458 27.4481 21.558C26.8139 21.8717 26.0438 21.6096 25.7299 20.9731C25.4177 20.3357 25.6765 19.5683 26.3143 19.2551C26.9504 18.9415 27.7229 19.2026 28.0355 19.839Z" fill="#CEA561"/>
<path d="M33.2701 17.2615C33.5813 17.8974 33.3197 18.6683 32.6808 18.9814C32.0444 19.2946 31.2797 19.0311 30.9644 18.3951C30.6518 17.7587 30.9112 16.9912 31.5491 16.6771C32.1846 16.3639 32.9555 16.6251 33.2701 17.2615Z" fill="#CEA561"/>
<path d="M38.4992 14.6863C38.8119 15.3223 38.5493 16.0931 37.9124 16.4058C37.275 16.718 36.5085 16.4549 36.1954 15.819C35.8807 15.1825 36.1443 14.4146 36.7812 14.1014C37.4128 13.7883 38.187 14.0494 38.4992 14.6863Z" fill="#CEA561"/>
<path d="M43.7399 12.1093C44.0526 12.7453 43.791 13.5157 43.156 13.8293C42.519 14.142 41.7501 13.8789 41.4374 13.2435C41.1233 12.6065 41.3859 11.8381 42.0219 11.5245C42.6578 11.2123 43.4277 11.4734 43.7399 12.1093Z" fill="#CEA561"/>
<path d="M48.9718 9.53471C49.2854 10.1707 49.0238 10.9401 48.3883 11.2537C47.7524 11.5669 46.982 11.3043 46.6674 10.6688C46.3533 10.0329 46.6187 9.26395 47.2518 8.94983C47.8911 8.63619 48.6572 8.89779 48.9718 9.53471Z" fill="#CEA561"/>
<path d="M32.6118 21.7461C32.9268 22.383 32.6633 23.1519 32.0245 23.467C31.3895 23.7797 30.6202 23.5166 30.3072 22.8807C29.9959 22.2438 30.256 21.4744 30.8931 21.1607C31.5302 20.8476 32.3015 21.1092 32.6118 21.7461Z" fill="#CEA561"/>
<path d="M37.8516 19.1707C38.1648 19.8076 37.9022 20.5766 37.2658 20.8912C36.6279 21.2034 35.8618 20.9403 35.5458 20.3039C35.2336 19.6674 35.4952 18.898 36.1307 18.5849C36.769 18.2717 37.5389 18.5333 37.8516 19.1707Z" fill="#CEA561"/>
<path d="M43.0803 16.5952C43.3953 17.2316 43.1308 18.003 42.4963 18.3142C41.8599 18.6278 41.09 18.3648 40.7768 17.7279C40.4642 17.0914 40.7248 16.323 41.3593 16.0084C41.9943 15.6967 42.7685 15.9578 43.0803 16.5952Z" fill="#CEA561"/>
<path d="M48.3153 14.0197C48.629 14.6556 48.3683 15.4255 47.7338 15.7377C47.0945 16.0518 46.3275 15.7883 46.0168 15.1518C45.7021 14.5144 45.9604 13.7465 46.5963 13.4328C47.2347 13.1197 48.0012 13.3823 48.3153 14.0197Z" fill="#CEA561"/>
<path d="M31.3809 26.6456C31.6915 27.2826 31.428 28.0505 30.7909 28.3637C30.1572 28.6768 29.3879 28.4162 29.0751 27.7802C28.7603 27.1424 29.0203 26.3725 29.6576 26.0603C30.2946 25.7466 31.0672 26.0087 31.3809 26.6456Z" fill="#CEA561"/>
<path d="M36.6155 24.0707C36.9296 24.7057 36.6637 25.4737 36.0292 25.7873C35.3918 26.101 34.6262 25.8398 34.3126 25.2029C33.9994 24.5655 34.2582 23.7961 34.8941 23.4839C35.5306 23.1703 36.3019 23.4324 36.6155 24.0707Z" fill="#CEA561"/>
<path d="M41.8503 21.4939C42.1615 22.1299 41.8994 22.8979 41.2635 23.2101C40.6275 23.5237 39.8596 23.263 39.5474 22.6271C39.2328 21.9887 39.4939 21.2193 40.1322 20.9071C40.7658 20.5945 41.5371 20.8561 41.8503 21.4939Z" fill="#CEA561"/>
<path d="M47.0835 18.9183C47.3962 19.5533 47.1355 20.3222 46.4986 20.6349C45.8641 20.9485 45.0913 20.6879 44.7811 20.0519C44.4669 19.414 44.7305 18.6441 45.3645 18.3315C46.0014 18.0178 46.7708 18.2809 47.0835 18.9183Z" fill="#CEA561"/>
<path d="M52.3238 16.3413C52.6365 16.9768 52.3735 17.7452 51.7394 18.0593C51.1011 18.3715 50.3288 18.1123 50.018 17.4764C49.7058 16.839 49.9699 16.0676 50.6029 15.755C51.2389 15.4408 52.0092 15.7039 52.3238 16.3413Z" fill="#CEA561"/>
<path d="M35.9645 28.5524C36.2777 29.1878 36.0151 29.9568 35.3767 30.2714C34.7408 30.5845 33.9714 30.3215 33.6587 29.687C33.348 29.051 33.6067 28.2816 34.2436 27.9689C34.88 27.6538 35.6499 27.9169 35.9645 28.5524Z" fill="#CEA561"/>
<path d="M41.1992 25.9769C41.5133 26.6119 41.2498 27.3804 40.6109 27.6954C39.9735 28.0076 39.2075 27.7465 38.8924 27.111C38.5821 26.4756 38.8428 25.7047 39.4792 25.3925C40.1161 25.0774 40.8889 25.341 41.1992 25.9769Z" fill="#CEA561"/>
<path d="M46.4318 23.4017C46.7454 24.0362 46.4809 24.8061 45.8449 25.1197C45.2071 25.4329 44.441 25.1713 44.1303 24.5358C43.8142 23.8994 44.0758 23.13 44.7113 22.8168C45.3473 22.5032 46.1205 22.7657 46.4318 23.4017Z" fill="#CEA561"/>
<path d="M51.6681 20.8262C51.9784 21.4612 51.7192 22.2301 51.0803 22.5437C50.4453 22.8555 49.6793 22.5924 49.3676 21.9584C49.0535 21.3224 49.3141 20.5535 49.9472 20.2413C50.586 19.9272 51.3549 20.1902 51.6681 20.8262Z" fill="#CEA561"/>
<path d="M34.7292 33.4496C35.0438 34.087 34.7794 34.8579 34.141 35.1706C33.5074 35.4837 32.7414 35.2221 32.4244 34.5842C32.1137 33.9492 32.3719 33.1813 33.0098 32.8676C33.6476 32.5554 34.4185 32.8156 34.7292 33.4496Z" fill="#CEA561"/>
<path d="M39.9651 30.8738C40.2806 31.5117 40.0176 32.2821 39.3807 32.5952C38.7437 32.9079 37.9796 32.6448 37.6631 32.0074C37.3519 31.3739 37.6096 30.605 38.2465 30.2918C38.882 29.9782 39.6543 30.2388 39.9651 30.8738Z" fill="#CEA561"/>
<path d="M45.1968 28.2981C45.5095 28.936 45.245 29.7059 44.6095 30.0181C43.9764 30.3317 43.2075 30.0692 42.8958 29.4313C42.5807 28.7977 42.8394 28.0288 43.4783 27.7152C44.1137 27.403 44.8836 27.6646 45.1968 28.2981Z" fill="#CEA561"/>
<path d="M50.4357 25.7212C50.7484 26.3591 50.4863 27.1285 49.848 27.4421C49.212 27.7558 48.4426 27.4922 48.1323 26.8548C47.8192 26.2213 48.0808 25.4524 48.7172 25.1382C49.3512 24.8265 50.1221 25.0881 50.4357 25.7212Z" fill="#CEA561"/>
<path d="M55.6729 23.146C55.9895 23.7839 55.724 24.5528 55.0885 24.8675C54.4497 25.1796 53.6817 24.918 53.371 24.2806C53.0564 23.6466 53.3209 22.8772 53.9559 22.5631C54.5899 22.2504 55.3598 22.512 55.6729 23.146Z" fill="#CEA561"/>
<path d="M39.3088 35.3594C39.6201 35.9959 39.3609 36.7648 38.7225 37.0789C38.0866 37.3921 37.3176 37.1295 37.0045 36.4931C36.6889 35.8576 36.9534 35.0887 37.586 34.7746C38.2272 34.4614 38.9957 34.7235 39.3088 35.3594Z" fill="#CEA561"/>
<path d="M44.5465 32.7835C44.8635 33.4194 44.6009 34.1898 43.9611 34.5034C43.3247 34.8156 42.5567 34.5526 42.2416 33.9166C41.928 33.2817 42.1915 32.5122 42.8284 32.1986C43.4653 31.885 44.2338 32.1471 44.5465 32.7835Z" fill="#CEA561"/>
<path d="M49.7815 30.2072C50.0951 30.8427 49.8316 31.615 49.1928 31.9262C48.5597 32.2404 47.7884 31.9764 47.4757 31.3404C47.163 30.7054 47.4251 29.9365 48.0611 29.6219C48.697 29.3102 49.4683 29.5708 49.7815 30.2072Z" fill="#CEA561"/>
<path d="M55.0178 27.6313C55.3271 28.2678 55.0679 29.0377 54.432 29.3494C53.7941 29.663 53.0271 29.399 52.7144 28.764C52.4013 28.1285 52.6629 27.3596 53.2969 27.0474C53.9348 26.7328 54.7013 26.9959 55.0178 27.6313Z" fill="#CEA561"/>
<path d="M38.0759 40.2578C38.3881 40.8923 38.1236 41.6641 37.4867 41.9773C36.8522 42.2904 36.0837 42.0283 35.7681 41.3919C35.4569 40.7559 35.7166 39.9865 36.3554 39.6743C36.9919 39.3602 37.7651 39.6218 38.0759 40.2578Z" fill="#CEA561"/>
<path d="M43.3139 37.6819C43.6261 38.3174 43.3649 39.0882 42.7271 39.4018C42.0916 39.7145 41.3241 39.45 41.0105 38.815C40.6997 38.1791 40.9575 37.4111 41.5939 37.098C42.2279 36.7843 43.0002 37.0464 43.3139 37.6819Z" fill="#CEA561"/>
<path d="M48.5481 35.1058C48.8598 35.7413 48.5978 36.5117 47.9628 36.8244C47.3278 37.137 46.5593 36.875 46.2467 36.239C45.933 35.6035 46.1917 34.8346 46.8291 34.521C47.4641 34.2083 48.2359 34.4704 48.5481 35.1058Z" fill="#CEA561"/>
<path d="M53.7809 32.5295C54.0951 33.1649 53.833 33.9353 53.1965 34.2489C52.5606 34.5621 51.7921 34.299 51.4795 33.6631C51.1678 33.0271 51.4274 32.2587 52.0629 31.9446C52.6989 31.6314 53.4697 31.8935 53.7809 32.5295Z" fill="#CEA561"/>
<path d="M59.0188 29.954C59.3354 30.589 59.0689 31.3589 58.433 31.673C57.7965 31.9852 57.0252 31.7241 56.7145 31.0876C56.3999 30.4526 56.6658 29.6818 57.3003 29.3691C57.9372 29.0545 58.7057 29.3176 59.0188 29.954Z" fill="#CEA561"/>
<path d="M42.6565 42.166C42.9692 42.801 42.709 43.5723 42.0721 43.8864C41.4347 44.2001 40.6668 43.9365 40.3507 43.3006C40.038 42.6641 40.3001 41.8952 40.9351 41.5816C41.5773 41.2665 42.3458 41.5291 42.6565 42.166Z" fill="#CEA561"/>
<path d="M47.8932 39.59C48.2078 40.225 47.9486 40.9958 47.3088 41.3095C46.6728 41.6226 45.902 41.3596 45.5893 40.7232C45.2771 40.0867 45.5358 39.3178 46.1737 39.0042C46.8135 38.6896 47.5824 38.9531 47.8932 39.59Z" fill="#CEA561"/>
<path d="M53.1338 37.0151C53.4441 37.6491 53.182 38.4214 52.5451 38.7336C51.9111 39.0482 51.1383 38.7842 50.828 38.1477C50.5153 37.5118 50.7731 36.7428 51.4134 36.4287C52.0484 36.116 52.8178 36.3777 53.1338 37.0151Z" fill="#CEA561"/>
<path d="M58.3649 34.4395C58.6738 35.0736 58.4165 35.8444 57.7796 36.1581C57.1427 36.4722 56.3766 36.2062 56.064 35.5712C55.7469 34.9343 56.0114 34.1659 56.6455 33.8532C57.2809 33.5396 58.0499 33.8026 58.3649 34.4395Z" fill="#CEA561"/>
<path d="M41.4305 47.0633C41.7451 47.6993 41.4772 48.4706 40.8422 48.7833C40.2053 49.096 39.4393 48.8334 39.1247 48.1979C38.8115 47.5615 39.0721 46.7911 39.711 46.4785C40.344 46.1663 41.1159 46.4284 41.4305 47.0633Z" fill="#CEA561"/>
<path d="M46.6593 44.4881C46.97 45.1245 46.7074 45.8953 46.0691 46.2075C45.4365 46.5197 44.6671 46.2567 44.3549 45.6212C44.0427 44.9853 44.3019 44.2159 44.9364 43.9032C45.5743 43.5905 46.3456 43.8516 46.6593 44.4881Z" fill="#CEA561"/>
<path d="M51.8997 41.9117C52.2133 42.5481 51.9522 43.319 51.3138 43.6307C50.6803 43.9439 49.9142 43.6813 49.5972 43.0444C49.2836 42.4089 49.5466 41.6395 50.1816 41.3273C50.8157 41.0146 51.587 41.2757 51.8997 41.9117Z" fill="#CEA561"/>
<path d="M57.1299 39.3336C57.4445 39.971 57.1819 40.7409 56.5474 41.0535C55.91 41.3667 55.143 41.1041 54.826 40.4672C54.5157 39.8317 54.7764 39.0623 55.4133 38.7497C56.0473 38.4365 56.8191 38.6986 57.1299 39.3336Z" fill="#CEA561"/>
<path d="M62.3668 36.7595C62.6828 37.3964 62.4183 38.1658 61.7824 38.4785C61.146 38.7907 60.3737 38.5305 60.0615 37.8941C59.7483 37.2586 60.0128 36.4868 60.6483 36.1746C61.2866 35.8614 62.0541 36.1235 62.3668 36.7595Z" fill="#CEA561"/>
<path d="M46.0075 48.9717C46.3221 49.6095 46.06 50.377 45.4217 50.6916C44.7838 51.0057 44.0163 50.7432 43.7017 50.1058C43.391 49.4713 43.6492 48.7014 44.2881 48.3892C44.9254 48.0741 45.6977 48.3371 46.0075 48.9717Z" fill="#CEA561"/>
<path d="M51.2437 46.3955C51.5573 47.0329 51.2972 47.8013 50.6569 48.1159C50.0224 48.4291 49.2539 48.1665 48.9413 47.5291C48.6286 46.8941 48.8863 46.1247 49.5228 45.813C50.1607 45.4974 50.932 45.7615 51.2437 46.3955Z" fill="#CEA561"/>
<path d="M56.4787 43.8185C56.7923 44.4559 56.5283 45.2257 55.8924 45.5389C55.254 45.8521 54.488 45.5895 54.1743 44.9526C53.8636 44.3181 54.1223 43.5482 54.7587 43.236C55.3947 42.9223 56.1665 43.1849 56.4787 43.8185Z" fill="#CEA561"/>
<path d="M61.7122 41.2449C62.0249 41.8818 61.7671 42.6512 61.1297 42.9644C60.4928 43.2766 59.7268 43.0135 59.4141 42.3771C59.1005 41.7426 59.3616 40.9727 59.9932 40.6605C60.632 40.3474 61.4019 40.6099 61.7122 41.2449Z" fill="#CEA561"/>
<path d="M44.7774 53.8697C45.0945 54.5071 44.8304 55.2785 44.194 55.5911C43.5581 55.9053 42.7901 55.6422 42.4765 55.0043C42.1633 54.3698 42.423 53.599 43.0599 53.2858C43.6968 52.9731 44.4672 53.2362 44.7774 53.8697Z" fill="#CEA561"/>
<path d="M50.0148 51.2934C50.3256 51.9308 50.062 52.7012 49.4251 53.0144C48.7921 53.3285 48.0227 53.0635 47.7105 52.4261C47.3983 51.793 47.657 51.0227 48.2915 50.7095C48.9308 50.3964 49.6997 50.6599 50.0148 51.2934Z" fill="#CEA561"/>
<path d="M55.248 48.7172C55.5588 49.3546 55.2986 50.1249 54.6636 50.4371C54.0243 50.7508 53.2583 50.4877 52.9446 49.8503C52.632 49.2163 52.8931 48.4459 53.529 48.1323C54.1631 47.8206 54.9354 48.0836 55.248 48.7172Z" fill="#CEA561"/>
<path d="M60.487 46.1411C60.7992 46.7785 60.5404 47.5489 59.9026 47.862C59.2681 48.1757 58.4958 47.9121 58.1831 47.2747C57.8704 46.6412 58.1306 45.8703 58.7675 45.5567C59.403 45.2426 60.1753 45.5071 60.487 46.1411Z" fill="#CEA561"/>
<path d="M65.7191 43.5652C66.0328 44.2026 65.7707 44.972 65.1357 45.2861C64.4988 45.5988 63.727 45.3372 63.4124 44.6998C63.1002 44.0662 63.3652 43.2934 63.9982 42.9812C64.6361 42.6662 65.4074 42.9311 65.7191 43.5652Z" fill="#CEA561"/>
<path d="M49.3527 55.7777C49.6697 56.4137 49.4047 57.1826 48.7669 57.4977C48.1314 57.8113 47.363 57.5483 47.0508 56.9109C46.7371 56.2759 46.9978 55.5074 47.6356 55.1938C48.2721 54.8797 49.042 55.1413 49.3527 55.7777Z" fill="#CEA561"/>
<path d="M54.5945 53.2029C54.9067 53.8399 54.6455 54.6078 54.0043 54.9229C53.3722 55.2356 52.6023 54.9735 52.2901 54.3366C51.9745 53.7006 52.2361 52.9322 52.8735 52.619C53.5124 52.3044 54.2808 52.5665 54.5945 53.2029Z" fill="#CEA561"/>
<path d="M59.8301 50.6256C60.1408 51.2625 59.8816 52.0333 59.2442 52.346C58.6078 52.6601 57.8379 52.3971 57.5267 51.7601C57.214 51.1242 57.4751 50.3558 58.1111 50.0416C58.7451 49.7294 59.5198 49.9901 59.8301 50.6256Z" fill="#CEA561"/>
<path d="M65.0622 48.0511C65.3729 48.6885 65.1127 49.4574 64.4792 49.7701C63.8408 50.0842 63.0738 49.8197 62.7626 49.1838C62.4485 48.5478 62.7062 47.7798 63.3432 47.4667C63.9781 47.1535 64.7471 47.4151 65.0622 48.0511Z" fill="#CEA561"/>
<path d="M48.1238 60.678C48.437 61.3125 48.1754 62.0838 47.537 62.397C46.902 62.7092 46.135 62.4461 45.8199 61.8116C45.5077 61.1752 45.7655 60.4048 46.4039 60.0931C47.0417 59.7794 47.8131 60.042 48.1238 60.678Z" fill="#CEA561"/>
<path d="M53.361 58.1016C53.6737 58.7366 53.4092 59.5084 52.7732 59.8211C52.1349 60.1328 51.3698 59.8698 51.0576 59.2353C50.7469 58.5993 51.0032 57.8289 51.6401 57.5167C52.2746 57.2036 53.044 57.4657 53.361 58.1016Z" fill="#CEA561"/>
<path d="M58.5923 55.5257C58.9069 56.1611 58.6434 56.9325 58.0089 57.2446C57.3715 57.5568 56.6035 57.2938 56.2928 56.6583C55.9801 56.0224 56.2384 55.2525 56.8772 54.9408C57.5107 54.6281 58.2826 54.8892 58.5923 55.5257Z" fill="#CEA561"/>
<path d="M63.8331 52.9494C64.1463 53.5849 63.8818 54.3552 63.2458 54.6694C62.6128 54.9816 61.8419 54.719 61.5312 54.083C61.2175 53.4466 61.4787 52.6767 62.1146 52.3645C62.7511 52.0514 63.5219 52.313 63.8331 52.9494Z" fill="#CEA561"/>
<path d="M69.0707 50.3735C69.3829 51.008 69.1194 51.7784 68.4873 52.0921C67.8484 52.4038 67.0766 52.1436 66.7639 51.5072C66.4517 50.8717 66.7167 50.0999 67.3498 49.7877C67.9867 49.4745 68.758 49.7361 69.0707 50.3735Z" fill="#CEA561"/>
<path d="M52.7075 62.5852C53.0197 63.2207 52.7595 63.9896 52.1202 64.3052C51.4857 64.6174 50.7153 64.3543 50.4017 63.7189C50.0885 63.0829 50.3511 62.3125 50.9875 62.0013C51.6254 61.6862 52.3943 61.9483 52.7075 62.5852Z" fill="#CEA561"/>
<path d="M57.9395 60.0096C58.2532 60.6451 57.9911 61.414 57.3503 61.7291C56.7148 62.0408 55.9474 61.7792 55.6318 61.1423C55.3191 60.5063 55.5817 59.7359 56.2196 59.4252C56.8574 59.1091 57.6244 59.3736 57.9395 60.0096Z" fill="#CEA561"/>
<path d="M63.1788 57.4325C63.4895 58.0685 63.2294 58.8389 62.5925 59.1525C61.9551 59.4647 61.1871 59.2036 60.8763 58.5662C60.5603 57.9307 60.8219 57.1618 61.4588 56.8481C62.0938 56.535 62.8651 56.7971 63.1788 57.4325Z" fill="#CEA561"/>
<path d="M68.4149 54.8584C68.7252 55.4943 68.466 56.2642 67.8301 56.5769C67.1922 56.8886 66.4281 56.626 66.1149 55.9906C65.7984 55.3541 66.0605 54.5862 66.6945 54.2725C67.3329 53.9594 68.0984 54.2224 68.4149 54.8584Z" fill="#CEA561"/>
<path d="M48.0315 79.13H4.98828V75.1312H48.0315V79.13Z" fill="#151515" fill-opacity="0.7"/>
<path d="M48.0312 79.13V78.259H5.8584V76.0018H47.1602L47.1607 79.13H48.0312H48.9014V74.2606H4.11719V80.0001H48.9014V79.13H48.0312Z" fill="#CEA561"/>
<path d="M48.0315 45.1398H4.98828V41.1419H48.0315V45.1398Z" fill="#151515" fill-opacity="0.7"/>
<path d="M48.0312 45.1403V44.2697H5.85801V42.013H47.1602L47.1607 45.1403H48.0312H48.9014V40.2719H4.11719V46.0109H48.9014V45.1403H48.0312Z" fill="#CEA561"/>
<path d="M50.2465 41.1417H2.77344C2.77344 41.1417 2.77344 35.9659 2.77344 33.4949C2.77344 28.6746 50.2465 29.6151 50.2465 33.4949C50.2465 36.7888 50.2465 41.1417 50.2465 41.1417Z" fill="#151515" fill-opacity="0.7"/>
<path d="M50.2462 41.1422V40.2716H2.77314V41.1422H3.64333C3.64333 41.1422 3.64333 35.9664 3.64333 33.4954H3.51012L3.63827 33.5334L3.64333 33.4954H3.51012L3.63827 33.5334L3.5807 33.5161L3.63562 33.5407L3.63827 33.5334L3.5807 33.5161L3.63562 33.5407L3.65051 33.518C3.69266 33.453 3.89516 33.2771 4.25365 33.1071C4.87905 32.8007 5.93315 32.4923 7.26763 32.2374C9.27382 31.8506 11.9245 31.562 14.9109 31.3736C17.8979 31.1843 21.2243 31.0937 24.6039 31.0937C30.8081 31.0932 37.1976 31.4001 42 31.9575C44.3988 32.2346 46.4064 32.5785 47.7569 32.9596C48.4294 33.1471 48.9387 33.3518 49.2099 33.5156C49.3453 33.5951 49.4156 33.664 49.4219 33.6741H49.4224L49.6719 33.4954H49.3752C49.3737 33.5922 49.4176 33.6717 49.4224 33.6741L49.6719 33.4954H49.3752C49.3752 36.7893 49.3752 41.1422 49.3752 41.1422H50.2462H51.1163C51.1163 41.1422 51.1163 36.7893 51.1163 33.4954C51.1183 33.1263 50.9583 32.7963 50.768 32.5694C50.5873 32.3512 50.3778 32.1912 50.1475 32.0481C49.7153 31.7841 49.194 31.5779 48.5648 31.3828C47.4663 31.0455 46.0393 30.7589 44.3463 30.5083C39.276 29.7606 31.8301 29.3535 24.6039 29.3525C18.9764 29.353 13.4956 29.6002 9.37466 30.1407C7.31128 30.4129 5.59383 30.7526 4.31917 31.2007C3.68004 31.4285 3.14859 31.6771 2.71402 32.0149C2.4976 32.1854 2.30243 32.3825 2.15135 32.6301C2.00002 32.8758 1.90082 33.1817 1.90236 33.4954C1.90236 35.9664 1.90236 41.1422 1.90236 41.1422V42.0128H51.1163V41.1422H50.2462Z" fill="#CEA561"/>
<path d="M51.6801 72.4258C51.6801 74.9595 49.6282 77.0138 47.0912 77.0138H5.45684C2.92561 77.0138 0.871094 74.9595 0.871094 72.4258V47.7272C0.871094 45.195 2.92561 43.1406 5.45684 43.1406H47.0912C49.6282 43.1406 51.6801 45.195 51.6801 47.7272V72.4258Z" fill="#151515" fill-opacity="0.7"/>
<path d="M51.6798 72.4263H50.8092C50.8088 73.4559 50.3949 74.3794 49.7209 75.0549C49.0459 75.7289 48.1218 76.1432 47.0908 76.1437H5.45652C4.42878 76.1437 3.5053 75.7294 2.83009 75.0549C2.15598 74.3794 1.74155 73.4554 1.74097 72.4263V47.7277C1.74155 46.6991 2.15578 45.7755 2.82989 45.1006C3.50511 44.4266 4.42878 44.0122 5.45652 44.0117H47.0908C48.1218 44.0122 49.0459 44.4266 49.7214 45.1006C50.3949 45.7755 50.8088 46.6991 50.8092 47.7277V72.4263H51.6798H52.5504V47.7277C52.5499 44.7142 50.1087 42.2711 47.0908 42.2706H5.45652C2.4437 42.2715 0.000722673 44.7137 0 47.7277V72.4263C0.000722673 75.4413 2.4435 77.8844 5.45652 77.8849H47.0908C50.1087 77.8849 52.5499 75.4403 52.5504 72.4263H51.6798Z" fill="#CEA561"/>
<path d="M5.52246 39.5545C5.52246 39.7804 5.27217 39.965 4.96879 39.965C4.66262 39.965 4.41797 39.7804 4.41797 39.5545V34.9655C4.41797 34.7391 4.66262 34.555 4.96879 34.555C5.27217 34.555 5.52246 34.7391 5.52246 34.9655V39.5545Z" fill="#CEA561"/>
<path d="M8.64678 39.5545C8.64678 39.7804 8.39688 39.965 8.09258 39.965C7.78487 39.965 7.53906 39.7804 7.53906 39.5545V34.9655C7.53906 34.7391 7.78487 34.555 8.09258 34.555C8.39688 34.555 8.64678 34.7391 8.64678 34.9655V39.5545Z" fill="#CEA561"/>
<path d="M11.7672 39.5545C11.7672 39.7804 11.5173 39.965 11.2143 39.965C10.9058 39.965 10.66 39.7804 10.66 39.5545V34.9655C10.66 34.7391 10.9058 34.555 11.2143 34.555C11.5173 34.555 11.7672 34.7391 11.7672 34.9655V39.5545Z" fill="#CEA561"/>
<path d="M14.8863 39.5545C14.8863 39.7804 14.6388 39.965 14.3332 39.965C14.0302 39.965 13.7812 39.7804 13.7812 39.5545V34.9655C13.7812 34.7391 14.0302 34.555 14.3332 34.555C14.6388 34.555 14.8863 34.7391 14.8863 34.9655V39.5545Z" fill="#CEA561"/>
<path d="M18.0009 39.5545C18.0009 39.7804 17.751 39.965 17.4491 39.965C17.1442 39.965 16.8984 39.7804 16.8984 39.5545V34.9655C16.8984 34.7391 17.1442 34.555 17.4491 34.555C17.751 34.555 18.0009 34.7391 18.0009 34.9655V39.5545Z" fill="#CEA561"/>
<path d="M21.1156 39.5545C21.1156 39.7804 20.8655 39.965 20.5644 39.965C20.2614 39.965 20.0156 39.7804 20.0156 39.5545V34.9655C20.0156 34.7391 20.2614 34.555 20.5644 34.555C20.8655 34.555 21.1156 34.7391 21.1156 34.9655V39.5545Z" fill="#CEA561"/>
<path d="M24.2359 39.5545C24.2359 39.7804 23.9881 39.965 23.6841 39.965C23.3796 39.965 23.1289 39.7804 23.1289 39.5545V34.9655C23.1289 34.7391 23.3796 34.555 23.6841 34.555C23.9881 34.555 24.2359 34.7391 24.2359 34.9655V39.5545Z" fill="#CEA561"/>
<path d="M27.3571 39.5545C27.3571 39.7804 27.1113 39.965 26.807 39.965C26.5017 39.965 26.254 39.7804 26.254 39.5545V34.9655C26.254 34.7391 26.5017 34.555 26.807 34.555C27.1113 34.555 27.3571 34.7391 27.3571 34.9655V39.5545Z" fill="#CEA561"/>
<path d="M30.4754 39.5545C30.4754 39.7804 30.2251 39.965 29.9222 39.965C29.6199 39.965 29.3711 39.7804 29.3711 39.5545V34.9655C29.3711 34.7391 29.6199 34.555 29.9222 34.555C30.2251 34.555 30.4754 34.7391 30.4754 34.9655V39.5545Z" fill="#CEA561"/>
<path d="M33.5911 39.5545C33.5911 39.7804 33.3444 39.965 33.0409 39.965C32.734 39.965 32.4883 39.7804 32.4883 39.5545V34.9655C32.4883 34.7391 32.734 34.555 33.0409 34.555C33.3444 34.555 33.5911 34.7391 33.5911 34.9655V39.5545Z" fill="#CEA561"/>
<path d="M36.7088 39.5545C36.7088 39.7804 36.463 39.965 36.1576 39.965C35.8546 39.965 35.6055 39.7804 35.6055 39.5545V34.9655C35.6055 34.7391 35.8546 34.555 36.1576 34.555C36.463 34.555 36.7088 34.7391 36.7088 34.9655V39.5545Z" fill="#CEA561"/>
<path d="M39.8298 39.5545C39.8298 39.7804 39.5822 39.965 39.2757 39.965C38.9713 39.965 38.7227 39.7804 38.7227 39.5545V34.9655C38.7227 34.7391 38.9713 34.555 39.2757 34.555C39.5822 34.555 39.8298 34.7391 39.8298 34.9655V39.5545Z" fill="#CEA561"/>
<path d="M42.9465 39.5545C42.9465 39.7804 42.7018 39.965 42.3944 39.965C42.0913 39.965 41.8398 39.7804 41.8398 39.5545V34.9655C41.8398 34.7391 42.0913 34.555 42.3944 34.555C42.7018 34.555 42.9465 34.7391 42.9465 34.9655V39.5545Z" fill="#CEA561"/>
<path d="M46.0661 39.5545C46.0661 39.7804 45.819 39.965 45.514 39.965C45.2095 39.965 44.9609 39.7804 44.9609 39.5545V34.9655C44.9609 34.7391 45.2095 34.555 45.514 34.555C45.819 34.555 46.0661 34.7391 46.0661 34.9655V39.5545Z" fill="#CEA561"/>
<path d="M49.1839 39.5545C49.1839 39.7804 48.9377 39.965 48.6332 39.965C48.3277 39.965 48.082 39.7804 48.082 39.5545V34.9655C48.082 34.7391 48.3277 34.555 48.6332 34.555C48.9377 34.555 49.1839 34.7391 49.1839 34.9655V39.5545Z" fill="#CEA561"/>
<path d="M7.53906 58.8876C7.53906 64.9186 16.1662 69.8058 26.8053 69.8058C37.4424 69.8058 46.0682 64.9186 46.0682 58.8876C46.0682 52.8596 37.4424 47.9714 26.8053 47.9714C16.1662 47.9714 7.53906 52.8596 7.53906 58.8876Z" fill="#CEA561"/>
<path d="M25.8422 58.2042L24.7412 66.7853H22.5092L21.8332 62.0522L21.1956 66.7853H19.2723L18.207 58.2042H19.9012L20.3745 62.1659L21.0253 58.2042H23.1494L23.6628 62.1659L24.298 58.2042H25.8422Z" fill="#151515" fill-opacity="0.7"/>
<path d="M28.3698 65.4877V63.6983C27.9789 63.7942 27.7836 63.9696 27.7836 64.2249V65.4877C27.7836 65.6992 27.8852 65.8047 28.0885 65.8047C28.2763 65.8047 28.3698 65.6992 28.3698 65.4877ZM30.0752 66.7861H28.5674V66.5168C28.4394 66.7601 28.0743 66.882 27.4721 66.882C26.5424 66.882 26.0781 66.5187 26.0781 65.7926V64.3984C26.0781 64.0871 26.1905 63.8159 26.4158 63.5846C26.6412 63.3534 27.0954 63.0643 27.7776 62.717C28.1722 62.518 28.3698 62.358 28.3698 62.2385V61.209C28.3698 60.9821 28.272 60.8683 28.0768 60.8683C27.8532 60.8683 27.7412 61.1454 27.7412 61.6999C27.7412 61.7996 27.7475 61.9475 27.7597 62.1427C27.7751 62.3383 27.7836 62.4857 27.7836 62.5854H26.1378V61.1974C26.1378 60.2599 26.8159 59.7911 28.1722 59.7911C29.4406 59.7911 30.0752 60.2796 30.0752 61.2572V66.7861Z" fill="#151515" fill-opacity="0.7"/>
<path d="M35.0457 66.7853H33.1663L32.5804 64.9005L32.0297 66.7853H30.3242L31.6588 63.1112L30.3604 59.8385H32.1613L32.7418 61.6394L33.2029 59.8385H34.8241L33.6813 63.195L35.0457 66.7853Z" fill="#151515" fill-opacity="0.7"/>
<path d="M18.3379 52.3793C18.4084 52.5046 18.488 52.6438 18.5772 52.7975C18.6668 52.9507 18.7616 53.1126 18.8623 53.2832C18.963 53.4532 19.0686 53.6291 19.1776 53.8107C19.2869 53.9928 19.3974 54.1749 19.51 54.3585C19.6219 54.5416 19.733 54.7222 19.8431 54.901C19.9531 55.0797 20.0595 55.2512 20.1624 55.415C20.2653 55.5793 20.3634 55.7335 20.4556 55.8766C20.5479 56.0206 20.6316 56.1488 20.7063 56.2615C20.7063 55.8525 20.7072 55.4801 20.7088 55.1438C20.7101 54.808 20.7133 54.505 20.7182 54.2347C20.7223 53.9644 20.7279 53.7245 20.7342 53.5144C20.7402 53.3044 20.7483 53.1203 20.7581 52.9623C20.768 52.8043 20.7791 52.6698 20.7925 52.559C20.8051 52.4487 20.8202 52.3572 20.8371 52.2854C20.8508 52.2242 20.87 52.1736 20.8955 52.1331L20.9824 52.0358L21.0902 51.9843L21.2126 51.9693C21.3148 51.9693 21.4211 51.9915 21.5312 52.0358V52.059C21.4563 52.164 21.3917 52.3018 21.3371 52.4709C21.2831 52.6405 21.237 52.8288 21.1988 53.0355C21.1608 53.2427 21.1298 53.4604 21.1062 53.6893C21.0822 53.9186 21.0639 54.1456 21.0498 54.371C21.036 54.596 21.0259 54.8123 21.0193 55.0205C21.0121 55.2281 21.0065 55.4131 21.0018 55.5769C20.9989 55.7205 20.9958 55.8607 20.9929 55.997C20.9896 56.1339 20.9873 56.2707 20.9848 56.407C20.9824 56.5439 20.9805 56.6821 20.9788 56.8218C20.9773 56.9616 20.9769 57.1051 20.9769 57.2535L20.6973 57.2901L20.6561 57.2853C20.6103 57.2212 20.552 57.1355 20.481 57.028C20.4099 56.9201 20.3299 56.7968 20.2414 56.658C20.153 56.5188 20.057 56.367 19.9539 56.2023C19.851 56.037 19.7442 55.8655 19.633 55.6868C19.5225 55.508 19.41 55.3254 19.2954 55.1395C19.181 54.953 19.0675 54.7685 18.9551 54.5849C18.8432 54.4019 18.734 54.2231 18.6277 54.0492C18.5219 53.8753 18.4222 53.7115 18.329 53.5578C18.2356 53.4046 18.1512 53.2644 18.075 53.1377C17.9982 53.0109 17.9332 52.903 17.8802 52.8144C17.8768 53.1521 17.8721 53.4807 17.8649 53.8006C17.8583 54.1205 17.8495 54.4279 17.8386 54.7222C17.8279 55.0171 17.816 55.297 17.8034 55.562C17.7902 55.827 17.7761 56.0732 17.761 56.3006C17.7501 56.461 17.739 56.5973 17.7277 56.7106C17.7162 56.8238 17.7021 56.9182 17.6861 56.9934C17.6701 57.069 17.6506 57.1292 17.6271 57.1731C17.603 57.2179 17.5738 57.2506 17.5386 57.2728C17.5036 57.295 17.4612 57.3094 17.4128 57.3152C17.3639 57.3215 17.3056 57.3243 17.2388 57.3243H17.1767L17.1312 57.3234L17.06 57.32L17.028 57.2969C17.0933 57.149 17.1516 56.9832 17.203 56.7997C17.2542 56.6166 17.299 56.4224 17.337 56.2167C17.3752 56.0115 17.4086 55.7995 17.4367 55.5803C17.465 55.3611 17.4882 55.1419 17.5066 54.9217C17.5249 54.702 17.5399 54.4852 17.5512 54.2723C17.5631 54.0593 17.5713 53.857 17.5775 53.6642C17.5835 53.472 17.5873 53.2933 17.5892 53.1285C17.5907 52.9637 17.5913 52.8202 17.5913 52.6978C17.5913 52.6323 17.5866 52.5759 17.5766 52.5296C17.5668 52.4829 17.5484 52.4444 17.5214 52.415C17.4948 52.3851 17.4586 52.3634 17.4128 52.3495C17.3667 52.336 17.3075 52.3292 17.2341 52.3292C17.1823 52.3292 17.1234 52.3321 17.0591 52.3384C16.9941 52.3442 16.9204 52.3533 16.8379 52.3654L16.8125 52.164C16.9408 52.1351 17.0568 52.109 17.1607 52.0864C17.2646 52.0633 17.3583 52.044 17.4426 52.0291C17.5264 52.0137 17.6026 52.0016 17.6701 51.9934C17.7384 51.9852 17.7996 51.9809 17.8545 51.9809C17.911 51.9809 17.9605 51.9876 18.0025 52.0011L18.1195 52.0681C18.1553 52.0985 18.1901 52.1394 18.2244 52.1905C18.2588 52.2415 18.297 52.3047 18.3379 52.3793Z" fill="#151515" fill-opacity="0.7"/>
<path d="M22.4223 56.4725C22.4223 56.5318 22.4285 56.5886 22.4415 56.6431C22.4543 56.6975 22.475 56.7452 22.5032 56.7862L22.6111 56.8835C22.6547 56.9071 22.707 56.9187 22.7682 56.9187C22.8367 56.9187 22.9079 56.9028 22.9809 56.871C23.0543 56.8387 23.1267 56.7948 23.1973 56.738C23.2682 56.6816 23.3364 56.6142 23.4013 56.5356C23.4664 56.4566 23.5248 56.3709 23.5765 56.2774C23.6281 56.1844 23.6715 56.0861 23.7058 55.9835C23.74 55.8804 23.7626 55.7744 23.7736 55.666C23.6606 55.6694 23.5483 55.6761 23.4367 55.6877C23.3253 55.6993 23.2193 55.7171 23.1196 55.7417C23.0192 55.7662 22.9267 55.798 22.841 55.838C22.756 55.8775 22.682 55.9267 22.6203 55.9855C22.5582 56.0447 22.5098 56.1141 22.475 56.1941C22.4396 56.2745 22.4223 56.367 22.4223 56.4725ZM23.8285 54.899C23.8285 54.7781 23.8084 54.6736 23.7689 54.5849C23.7293 54.4967 23.6772 54.424 23.6132 54.3676C23.5491 54.3108 23.4768 54.2689 23.3959 54.2414C23.3143 54.2139 23.2334 54.2 23.1531 54.2C23.0443 54.2 22.9527 54.2115 22.8777 54.2347C22.8028 54.2578 22.7422 54.2891 22.6958 54.3286C22.6491 54.3681 22.6156 54.4153 22.5951 54.4693C22.5742 54.5237 22.5638 54.582 22.5638 54.6446C22.5638 54.7179 22.5775 54.7916 22.6043 54.8658C22.6308 54.94 22.6701 55.0118 22.7219 55.0821L22.7131 55.1072C22.6259 55.15 22.538 55.1717 22.4496 55.1717C22.3978 55.1717 22.3493 55.163 22.3043 55.1471C22.2589 55.1312 22.22 55.1081 22.1876 55.0773C22.1545 55.0469 22.1287 55.0098 22.1095 54.965C22.0901 54.9212 22.0807 54.8711 22.0807 54.8162C22.0807 54.7266 22.1024 54.6413 22.146 54.5623C22.1895 54.4828 22.2473 54.41 22.3188 54.3445C22.3907 54.279 22.4741 54.2202 22.5687 54.1682C22.6632 54.1161 22.7611 54.0723 22.8618 54.0366C22.9624 54.0005 23.0635 53.973 23.1653 53.9543C23.2667 53.935 23.3614 53.9254 23.4486 53.9254C23.6085 53.9254 23.7457 53.947 23.8592 53.9894C23.973 54.0323 24.0652 54.0945 24.1364 54.1764C24.2074 54.2578 24.2597 54.357 24.292 54.4726C24.325 54.5888 24.3415 54.7203 24.3415 54.8667C24.3415 54.9674 24.3372 55.0783 24.3287 55.1987C24.3202 55.3196 24.3109 55.4458 24.2999 55.5779C24.2898 55.7099 24.2798 55.8462 24.2717 55.9869C24.2634 56.1271 24.2591 56.2668 24.2591 56.406C24.2591 56.6257 24.2999 56.791 24.3814 56.9018C24.4633 57.0126 24.5706 57.068 24.7033 57.068C24.8209 57.068 24.9523 57.0242 25.0975 56.9374L25.1638 57.0357C25.0612 57.1383 24.9498 57.2159 24.8294 57.2694C24.7089 57.3229 24.5819 57.3499 24.4492 57.3499C24.35 57.3499 24.2581 57.3325 24.1744 57.2993C24.0903 57.2655 24.0178 57.2154 23.9565 57.1494C23.8955 57.0829 23.8482 56.9991 23.8144 56.8984C23.7811 56.7977 23.7641 56.6807 23.7641 56.5477L23.7679 56.4287C23.7698 56.3892 23.7751 56.3473 23.7824 56.3029H23.7689C23.703 56.4345 23.6274 56.5636 23.5411 56.6913C23.4546 56.8184 23.3601 56.9322 23.257 57.0324C23.1538 57.1326 23.0437 57.2135 22.927 57.2752C22.8103 57.3368 22.6877 57.3682 22.5597 57.3682C22.4543 57.3682 22.358 57.3498 22.2708 57.3128C22.1839 57.2761 22.1095 57.226 22.0478 57.162C21.9857 57.0979 21.9377 57.0218 21.9032 56.9341C21.869 56.8464 21.8515 56.75 21.8515 56.6465C21.8515 56.512 21.8766 56.3897 21.9264 56.2798C21.9757 56.17 22.0446 56.0717 22.1325 55.9845C22.22 55.8973 22.3248 55.8221 22.4471 55.759C22.5695 55.6954 22.7021 55.6429 22.8458 55.601C22.9891 55.5591 23.1412 55.5277 23.3018 55.507C23.4621 55.4863 23.6253 55.4762 23.792 55.4762C23.8021 55.3798 23.8112 55.2869 23.8181 55.1968C23.8247 55.1067 23.8285 55.0074 23.8285 54.899Z" fill="#151515" fill-opacity="0.7"/>
<path d="M26.4485 52.3024C26.384 52.5924 26.3303 52.8921 26.287 53.2009C26.2434 53.5102 26.2061 53.8152 26.1756 54.1163C26.2475 54.1192 26.3171 54.1216 26.3853 54.1231C26.453 54.1245 26.5166 54.126 26.5756 54.1279C26.6342 54.1289 26.6879 54.1298 26.7359 54.1298C26.7839 54.1298 26.824 54.1298 26.856 54.1298C26.995 54.1298 27.1085 54.1216 27.1975 54.1048L27.2158 54.1756L27.2223 54.2353C27.2223 54.3023 27.1945 54.3461 27.1392 54.3659C27.0831 54.3856 27.0028 54.3958 26.8971 54.3958C26.7965 54.3958 26.6838 54.3895 26.5595 54.3775C26.4348 54.3649 26.2987 54.3534 26.1506 54.3428C26.1337 54.5066 26.1195 54.6656 26.1082 54.8207C26.097 54.9753 26.0876 55.1218 26.0804 55.2591C26.0738 55.3964 26.0687 55.5241 26.0659 55.6416C26.0627 55.7592 26.0612 55.8613 26.0612 55.9485C26.0612 56.1119 26.0697 56.2578 26.0866 56.386C26.1032 56.5142 26.1333 56.623 26.1756 56.7122C26.2183 56.8018 26.277 56.8702 26.352 56.9174C26.4269 56.9646 26.5217 56.9887 26.6361 56.9887C26.7184 56.9887 26.8106 56.9738 26.9124 56.9449C27.0134 56.916 27.1292 56.8692 27.2591 56.8052C27.3004 56.8466 27.324 56.8967 27.3302 56.9564C27.2356 57.0191 27.1399 57.0759 27.0439 57.127C26.9476 57.1781 26.8529 57.2219 26.76 57.2585C26.6666 57.2951 26.5763 57.3236 26.4893 57.3433C26.4024 57.3631 26.32 57.3732 26.2423 57.3732C26.1399 57.3732 26.0461 57.3544 25.9614 57.3173C25.8768 57.2797 25.8034 57.2132 25.7418 57.1178C25.6801 57.0224 25.6317 56.8938 25.5973 56.7319C25.563 56.57 25.5459 56.3653 25.5459 56.1181C25.5459 55.9789 25.5483 55.8358 25.5525 55.6884C25.5574 55.5414 25.5634 55.3921 25.5709 55.2408C25.5785 55.0895 25.5888 54.9382 25.6011 54.7874C25.6127 54.6362 25.6268 54.4873 25.6421 54.3404C25.5217 54.3423 25.4095 54.3471 25.3065 54.3558C25.2036 54.364 25.1149 54.3775 25.0421 54.3958L25.0352 54.3635L25.082 54.2729C25.1133 54.245 25.1569 54.2194 25.2125 54.1963C25.2685 54.1732 25.3351 54.1544 25.4129 54.139C25.491 54.124 25.5766 54.113 25.6698 54.1072C25.7045 53.7878 25.7422 53.4866 25.7817 53.2024C25.8212 52.9181 25.8611 52.6647 25.9009 52.4421L25.9432 52.3434L26.0155 52.2817L26.105 52.2494L26.1986 52.2403C26.2488 52.2403 26.2945 52.2456 26.335 52.2562L26.4485 52.3024Z" fill="#151515" fill-opacity="0.7"/>
<path d="M30.4269 53.9713C30.4132 54.1164 30.4003 54.27 30.3887 54.4329C30.3774 54.5957 30.367 54.7581 30.358 54.9209C30.3488 55.0833 30.342 55.2428 30.3373 55.3984C30.3328 55.554 30.3303 55.6976 30.3303 55.8291C30.3303 56.0777 30.345 56.2815 30.374 56.4395C30.4028 56.5975 30.4404 56.7218 30.4859 56.8129C30.5321 56.9035 30.5844 56.9661 30.6431 57.0003C30.702 57.035 30.7613 57.0518 30.8206 57.0518L30.925 57.0384L31.0219 57.0051L31.1057 56.9627L31.171 56.9213L31.2468 57.0268C31.2023 57.0726 31.1518 57.1159 31.0954 57.1564C31.0389 57.1969 30.9796 57.232 30.9171 57.2614C30.8539 57.2913 30.7886 57.3149 30.7199 57.3313C30.6512 57.3481 30.5816 57.3568 30.5116 57.3568C30.4231 57.3568 30.3369 57.339 30.2535 57.3038C30.1704 57.2691 30.0964 57.2099 30.0317 57.1265C29.9665 57.0432 29.9144 56.9324 29.8749 56.7946C29.835 56.6563 29.8153 56.4848 29.8153 56.28C29.8153 56.2145 29.8166 56.1485 29.8197 56.082C29.8228 56.0155 29.8278 55.9452 29.8344 55.87C29.8416 55.7954 29.8504 55.7149 29.8608 55.6296C29.8717 55.5439 29.8837 55.4494 29.8975 55.3459L29.8724 55.341C29.7686 55.7245 29.6562 56.0459 29.5346 56.3056C29.4135 56.5652 29.2887 56.7743 29.161 56.9328C29.0337 57.0918 28.9057 57.2051 28.7777 57.273C28.6492 57.3409 28.5268 57.3751 28.4113 57.3751C28.2737 57.3751 28.1595 57.338 28.0688 57.2638C27.9779 57.1896 27.9054 57.0894 27.8508 56.9617C27.7966 56.8341 27.7586 56.6862 27.7364 56.5175C27.7144 56.3484 27.7031 56.1692 27.7031 55.9804C27.7031 55.8199 27.7082 55.6552 27.7182 55.4865C27.7279 55.3179 27.7413 55.1522 27.7573 54.9898C27.7733 54.827 27.7916 54.6718 27.8122 54.5244C27.8324 54.3775 27.8537 54.2455 27.8753 54.1294L27.9129 54.0263L27.9737 53.967L28.0494 53.939L28.1316 53.9323C28.1834 53.9323 28.2319 53.9386 28.2771 53.9506C28.3223 53.9631 28.3669 53.9805 28.4113 54.0036C28.3835 54.1761 28.3581 54.3481 28.3345 54.5191C28.3104 54.6901 28.2897 54.8559 28.2724 55.0168C28.2551 55.1782 28.2414 55.3333 28.2316 55.4832C28.2212 55.633 28.2163 55.7727 28.2163 55.9023C28.2163 56.043 28.2235 56.1707 28.238 56.2858C28.2526 56.4014 28.2765 56.5002 28.3104 56.5826C28.3439 56.665 28.3872 56.7286 28.4399 56.7739C28.4926 56.8187 28.5569 56.8413 28.6332 56.8413C28.7632 56.8413 28.8959 56.7715 29.0318 56.6317C29.1676 56.492 29.2975 56.2877 29.4214 56.0189C29.5446 55.7506 29.65 55.4485 29.7372 55.1132C29.8241 54.7783 29.88 54.4165 29.9044 54.0287L30.39 53.9689L30.4269 53.9713Z" fill="#151515" fill-opacity="0.7"/>
<path d="M31.6977 57.3136L31.6606 57.3112C31.6731 57.1667 31.6842 57.0086 31.6952 56.8376C31.7058 56.6666 31.716 56.4926 31.7246 56.3163C31.7343 56.14 31.742 55.9651 31.7487 55.7917C31.756 55.6187 31.7617 55.4568 31.767 55.306C31.7728 55.1557 31.7767 55.0213 31.7791 54.9018C31.781 54.7828 31.782 54.6889 31.782 54.6204C31.782 54.5636 31.78 54.5149 31.7752 54.4735L31.7444 54.3704L31.6745 54.3097C31.6437 54.2972 31.6027 54.2904 31.5507 54.2904L31.4707 54.2952L31.379 54.3087L31.2654 54.3328C31.2237 54.3425 31.1751 54.3545 31.1202 54.3685L31.0859 54.2032C31.3394 54.1117 31.5444 54.0471 31.702 54.0095C31.8595 53.9724 31.965 53.9536 32.0204 53.9536C32.1211 53.9536 32.1934 53.983 32.2368 54.0418C32.2806 54.1006 32.3018 54.1883 32.3018 54.3039C32.3018 54.315 32.3008 54.3463 32.2975 54.3983C32.2946 54.4499 32.2902 54.5178 32.2849 54.6007C32.2796 54.684 32.2729 54.7809 32.2652 54.8907C32.258 55.0006 32.2488 55.1186 32.2392 55.2443C32.2291 55.3706 32.2185 55.5016 32.2059 55.6384C32.1939 55.7753 32.1809 55.9111 32.1669 56.047L32.19 56.0494C32.2628 55.7502 32.3457 55.4713 32.4386 55.2126C32.5307 54.9534 32.6347 54.7288 32.7499 54.5381C32.865 54.3468 32.9917 54.197 33.13 54.0876C33.2683 53.9787 33.42 53.9238 33.5848 53.9238C33.6431 53.9238 33.697 53.9329 33.7472 53.9512C33.7977 53.9695 33.8416 53.9956 33.8777 54.0283C33.9143 54.0611 33.9437 54.0996 33.9649 54.1449C33.9866 54.1897 33.9972 54.2393 33.9972 54.2928C33.9972 54.3612 33.9823 54.4277 33.9524 54.4908C33.9225 54.554 33.8758 54.6103 33.8112 54.6595H33.7929C33.7289 54.6055 33.6681 54.5674 33.6108 54.5434C33.554 54.5197 33.4933 54.5082 33.4287 54.5082C33.3603 54.5082 33.2938 54.5207 33.2297 54.5472C33.1652 54.5727 33.1064 54.6103 33.0534 54.6595C32.9662 54.7385 32.8852 54.8435 32.8106 54.9741C32.7359 55.1046 32.6675 55.2492 32.6053 55.4082C32.5437 55.5671 32.4878 55.7338 32.4386 55.9087C32.3885 56.0836 32.3457 56.2537 32.31 56.4194C32.2743 56.5852 32.245 56.7408 32.2228 56.8867C32.2011 57.0322 32.1852 57.1551 32.1761 57.2543L31.6977 57.3136Z" fill="#151515" fill-opacity="0.7"/>
<path d="M34.5118 56.4725C34.5118 56.5318 34.518 56.5886 34.531 56.6431C34.5441 56.6975 34.5648 56.7452 34.5927 56.7862L34.7006 56.8835C34.7445 56.9071 34.7965 56.9187 34.8577 56.9187C34.9266 56.9187 34.9974 56.9028 35.0706 56.871C35.1439 56.8387 35.2161 56.7948 35.287 56.738C35.3578 56.6816 35.4262 56.6142 35.4912 56.5356C35.5558 56.4566 35.6141 56.3709 35.6661 56.2774C35.7177 56.1844 35.761 56.0861 35.7952 55.9835C35.8299 55.8804 35.8526 55.7744 35.8632 55.666C35.7504 55.6694 35.6377 55.6761 35.5264 55.6877C35.4146 55.6993 35.3091 55.7171 35.2094 55.7417C35.1092 55.7662 35.0162 55.798 34.9309 55.838C34.8457 55.8775 34.7715 55.9267 34.7103 55.9855C34.6481 56.0447 34.5995 56.1141 34.5648 56.1941C34.5296 56.2745 34.5118 56.367 34.5118 56.4725ZM35.9181 54.899C35.9181 54.7781 35.8979 54.6736 35.8584 54.5849C35.8189 54.4967 35.7668 54.424 35.7027 54.3676C35.6387 54.3108 35.5664 54.2689 35.4855 54.2414C35.404 54.2139 35.3231 54.2 35.2426 54.2C35.1338 54.2 35.0422 54.2115 34.9675 54.2347C34.8924 54.2578 34.8317 54.2891 34.7854 54.3286C34.7387 54.3681 34.7055 54.4153 34.6847 54.4693C34.664 54.5237 34.6534 54.582 34.6534 54.6446C34.6534 54.7179 34.6674 54.7916 34.6939 54.8658C34.7204 54.94 34.7599 55.0118 34.8114 55.0821L34.8028 55.1072C34.7156 55.15 34.6279 55.1717 34.5392 55.1717C34.4877 55.1717 34.439 55.163 34.3937 55.1471C34.3489 55.1312 34.3094 55.1081 34.2771 55.0773C34.2444 55.0469 34.2184 55.0098 34.1991 54.965C34.1798 54.9212 34.1702 54.8711 34.1702 54.8162C34.1702 54.7266 34.1919 54.6413 34.2357 54.5623C34.2791 54.4828 34.3369 54.41 34.4087 54.3445C34.4805 54.279 34.5638 54.2202 34.6582 54.1682C34.7527 54.1161 34.8509 54.0723 34.9512 54.0366C35.0519 54.0005 35.153 53.973 35.2547 53.9543C35.3563 53.935 35.4513 53.9254 35.538 53.9254C35.6979 53.9254 35.8352 53.947 35.9489 53.9894C36.0626 54.0323 36.1551 54.0945 36.226 54.1764C36.2968 54.2578 36.3493 54.357 36.3816 54.4726C36.4148 54.5888 36.4312 54.7203 36.4312 54.8667C36.4312 54.9674 36.4269 55.0783 36.4182 55.1987C36.41 55.3196 36.4004 55.4458 36.3898 55.5779C36.3792 55.7099 36.3695 55.8462 36.3613 55.9869C36.3531 56.1271 36.3488 56.2668 36.3488 56.406C36.3488 56.6257 36.3898 56.791 36.4712 56.9018C36.5531 57.0126 36.66 57.068 36.793 57.068C36.9106 57.068 37.0416 57.0242 37.1871 56.9374L37.2536 57.0357C37.151 57.1383 37.0392 57.2159 36.9188 57.2694C36.7983 57.3229 36.6716 57.3499 36.5386 57.3499C36.4394 57.3499 36.3478 57.3325 36.264 57.2993C36.1797 57.2655 36.1074 57.2154 36.0462 57.1494C35.9851 57.0829 35.9379 56.9991 35.9041 56.8984C35.8709 56.7977 35.854 56.6807 35.854 56.5477L35.8574 56.4287C35.8593 56.3892 35.8646 56.3473 35.8723 56.3029H35.8584C35.7928 56.4345 35.7167 56.5636 35.631 56.6913C35.5442 56.8184 35.4498 56.9322 35.3467 57.0324C35.2436 57.1326 35.1333 57.2135 35.0167 57.2752C34.9001 57.3368 34.7772 57.3682 34.6496 57.3682C34.5441 57.3682 34.4477 57.3498 34.3605 57.3128C34.2733 57.2761 34.1991 57.226 34.1374 57.162C34.0753 57.0979 34.0276 57.0218 33.9929 56.9341C33.9587 56.8464 33.9413 56.75 33.9413 56.6465C33.9413 56.512 33.9664 56.3897 34.016 56.2798C34.0656 56.17 34.1341 56.0717 34.2222 55.9845C34.3094 55.8973 34.4145 55.8221 34.5368 55.759C34.6592 55.6954 34.7917 55.6429 34.9353 55.601C35.0788 55.5591 35.2311 55.5277 35.3915 55.507C35.5519 55.4863 35.7148 55.4762 35.8815 55.4762C35.8921 55.3798 35.9008 55.2869 35.908 55.1968C35.9147 55.1067 35.9181 55.0074 35.9181 54.899Z" fill="#151515" fill-opacity="0.7"/>
<path d="M38.4766 51.1064C38.4458 51.3661 38.4159 51.632 38.3861 51.9047C38.3567 52.1769 38.3282 52.4525 38.3013 52.7314C38.2748 53.0099 38.2497 53.2898 38.2271 53.5707C38.2039 53.8516 38.1842 54.1286 38.1673 54.4008C38.1505 54.6735 38.1379 54.9414 38.1283 55.2039C38.1196 55.4665 38.1148 55.7185 38.1148 55.9599C38.1148 56.1111 38.1167 56.2407 38.1206 56.3491C38.124 56.4575 38.1302 56.5491 38.1389 56.6238C38.1471 56.6989 38.1587 56.7591 38.1731 56.8049C38.1876 56.8507 38.2054 56.8858 38.2271 56.9104L38.3022 56.9596L38.4053 56.9721C38.479 56.9721 38.5581 56.961 38.6428 56.9388C38.7272 56.9167 38.8134 56.8858 38.9006 56.8463L38.944 56.9653C38.889 57.0097 38.8201 57.0545 38.7368 57.1002C38.6534 57.146 38.5658 57.1884 38.4742 57.2265C38.3827 57.2645 38.2931 57.2954 38.2049 57.319C38.1177 57.3426 38.0411 57.3546 37.9775 57.3546C37.8951 57.3546 37.8296 57.3334 37.7814 57.2915C37.7337 57.2496 37.6971 57.1812 37.6716 57.0867C37.6465 56.9918 37.6306 56.869 37.6234 56.7167C37.6167 56.565 37.6133 56.3795 37.6133 56.1612C37.6133 56.0817 37.6157 55.9685 37.62 55.8211C37.6244 55.6742 37.6311 55.5026 37.6393 55.307C37.648 55.1114 37.6576 54.898 37.6682 54.6658C37.6793 54.4336 37.6904 54.1936 37.7024 53.9455C37.7149 53.6969 37.7275 53.4464 37.7414 53.1939C37.7554 52.9415 37.7689 52.6967 37.7824 52.4611C37.7964 52.2251 37.8094 52.0025 37.8214 51.7934C37.8339 51.5843 37.845 51.3993 37.8561 51.2389L37.8879 51.144L37.9645 51.0799L38.07 51.0442L38.188 51.0332C38.2801 51.0332 38.3759 51.0572 38.4766 51.1064Z" fill="#151515" fill-opacity="0.7"/>
</svg>
