<svg width="32" height="32" viewBox="0 0 32 32" fill="none" xmlns="http://www.w3.org/2000/svg">
<circle cx="16" cy="15.9996" r="16" fill="#CEA561"/>
<path d="M23.9981 23.9978L20.1377 20.1373M20.1377 20.1373C20.798 19.477 21.3218 18.693 21.6792 17.8302C22.0366 16.9675 22.2205 16.0427 22.2205 15.1089C22.2205 14.175 22.0366 13.2503 21.6792 12.3875C21.3218 11.5247 20.798 10.7408 20.1377 10.0804C19.4773 9.42006 18.6934 8.89625 17.8306 8.53887C16.9678 8.1815 16.0431 7.99756 15.1092 7.99756C14.1753 7.99756 13.2506 8.1815 12.3878 8.53887C11.5251 8.89625 10.7411 9.42006 10.0808 10.0804C8.74715 11.414 7.99792 13.2228 7.99792 15.1089C7.99792 16.9949 8.74715 18.8037 10.0808 20.1373C11.4144 21.4709 13.2232 22.2202 15.1092 22.2202C16.9952 22.2202 18.804 21.4709 20.1377 20.1373Z" stroke="#151515" stroke-linecap="round" stroke-linejoin="round"/>
</svg>
