<svg width="184" height="40" viewBox="0 0 184 40" fill="none" xmlns="http://www.w3.org/2000/svg">
<rect x="0.5" y="0.5" width="39" height="39" rx="6.16667" stroke="white"/>
<path d="M17.2756 34.4551V21.234H13.75V16.4744H17.2756V12.4199C17.2756 9.24679 19.391 6.25 24.1506 6.25C26.0897 6.25 27.5 6.42628 27.5 6.42628L27.3237 10.8333H24.3269C22.5641 10.8333 22.3878 11.5385 22.3878 12.9487V16.4744H27.5L27.3237 21.234H22.3878V34.4551H17.2756Z" fill="white" fill-opacity="0.8"/>
<rect x="72.5" y="0.5" width="39" height="39" rx="6.16667" stroke="white"/>
<path d="M105.114 11.8654C104.132 12.3013 103.09 12.587 102.023 12.7129C103.143 12.0379 103.983 10.9817 104.388 9.73788C103.331 10.3635 102.175 10.8044 100.97 11.0416C100.159 10.1779 99.086 9.60577 97.9169 9.41388C96.7477 9.22198 95.5479 9.42104 94.5033 9.9802C93.4587 10.5394 92.6277 11.4274 92.139 12.5068C91.6504 13.5861 91.5313 14.7965 91.8003 15.9504C89.6604 15.8427 87.567 15.2863 85.656 14.3172C83.745 13.3482 82.0592 11.9881 80.7078 10.3254C80.2293 11.1469 79.9778 12.0809 79.9791 13.0316C79.978 13.9176 80.196 14.7901 80.6136 15.5715C81.0313 16.3529 81.6356 17.019 82.3728 17.5104C81.5183 17.4839 80.6825 17.2533 79.9353 16.8379V16.9041C79.9347 18.1471 80.3645 19.3519 81.1515 20.314C81.9386 21.276 83.0344 21.9359 84.2528 22.1816C83.8028 22.3066 83.3278 22.3654 82.8353 22.3654C82.4878 22.3654 82.1516 22.3366 81.8228 22.2704C82.1668 23.3396 82.8363 24.2746 83.7377 24.9447C84.6391 25.6149 85.7273 25.9866 86.8503 26.0079C84.5918 27.7711 81.7281 28.5708 78.8828 28.2329C81.3423 29.8177 84.207 30.6589 87.1328 30.6554C97.0328 30.6554 102.443 22.4529 102.443 15.3429C102.443 15.1091 102.44 14.8779 102.43 14.6466C103.484 13.8889 104.393 12.9472 105.113 11.8666" fill="white" fill-opacity="0.8"/>
<rect x="144.5" y="0.5" width="39" height="39" rx="6.16667" stroke="white"/>
<path d="M157.332 29.9997H152.332V13.333H157.332V29.9997ZM175.665 29.9997H170.665V21.0963C170.665 18.7763 169.839 17.6213 168.2 17.6213C166.902 17.6213 166.079 18.268 165.665 19.563V29.9997H160.665C160.665 29.9997 160.732 14.9997 160.665 13.333H164.612L164.917 16.6663H165.02C166.045 14.9997 167.684 13.8697 169.93 13.8697C171.639 13.8697 173.02 14.3447 174.075 15.538C175.137 16.733 175.665 18.3363 175.665 20.588V29.9997Z" fill="white" fill-opacity="0.8"/>
<path d="M154.833 13.333C156.26 13.333 157.417 12.2137 157.417 10.833C157.417 9.4523 156.26 8.33301 154.833 8.33301C153.407 8.33301 152.25 9.4523 152.25 10.833C152.25 12.2137 153.407 13.333 154.833 13.333Z" fill="white" fill-opacity="0.8"/>
</svg>
